HIERARCHY
ROOT reference
{
  OFFSET -65.3212 -1.93545 -120.338
  CHANNELS 6 Xposition Yposition Zposition Zrotation Xrotation Yrotation
  JOINT Hips
  {
    OFFSET 0 78.7191 0
    CHANNELS 3 Zrotation Xrotation Yrotation
    JOINT Chest
    {
      OFFSET 0 8.7983 -4.7612
      CHANNELS 3 Zrotation Xrotation Yrotation
      JOINT Chest2
      {
        OFFSET 0 8.0291 0.4195
        CHANNELS 3 Zrotation Xrotation Yrotation
        JOINT Chest3
        {
          OFFSET 0 9.9351 -2.2114
          CHANNELS 3 Zrotation Xrotation Yrotation
          JOINT Neck
          {
            OFFSET 0 22.3885 -0.4656
            CHANNELS 3 Zrotation Xrotation Yrotation
            JOINT Head
            {
              OFFSET -0.0001 12.643 3.4389
              CHANNELS 3 Zrotation Xrotation Yrotation
              End Site
              {
                OFFSET 0.0001 17.6655 0.5274
              }
            }
          }
          JOINT LeftCollar
          {
            OFFSET 2.2603 21.606 7.4023
            CHANNELS 3 Zrotation Xrotation Yrotation
            JOINT LeftShoulder
            {
              OFFSET 13.5163 -1.1332 -5.0146
              CHANNELS 3 Zrotation Xrotation Yrotation
              JOINT LeftElbow
              {
                OFFSET -0.0995 -28.05 -0.2431
                CHANNELS 3 Zrotation Xrotation Yrotation
                JOINT LeftWrist
                {
                  OFFSET 0.0679 -23.3996 -0.1402
                  CHANNELS 3 Zrotation Xrotation Yrotation
                  JOINT LeftFinger1
                  {
                    OFFSET 0.7932 -9.069 2.5189
                    CHANNELS 3 Zrotation Xrotation Yrotation
                    JOINT LeftFinger11
                    {
                      OFFSET -0.8272 -3.3923 0.5977
                      CHANNELS 3 Zrotation Xrotation Yrotation
                      JOINT LeftFinger12
                      {
                        OFFSET -0.5649 -2.3158 0.4082
                        CHANNELS 3 Zrotation Xrotation Yrotation
                        End Site
                        {
                          OFFSET -0.4919 -1.6479 0.2673
                        }
                      }
                    }
                  }
                  JOINT LeftFinger2
                  {
                    OFFSET 0.9159 -9.2044 0.2193
                    CHANNELS 3 Zrotation Xrotation Yrotation
                    JOINT LeftFinger21
                    {
                      OFFSET 0.0117 -4.1944 -0.0248
                      CHANNELS 3 Zrotation Xrotation Yrotation
                      JOINT LeftFinger22
                      {
                        OFFSET 0.0071 -2.3249 -0.0142
                        CHANNELS 3 Zrotation Xrotation Yrotation
                        End Site
                        {
                          OFFSET -0.1475 -2.0882 0.0028
                        }
                      }
                    }
                  }
                  JOINT LeftFinger3
                  {
                    OFFSET 0.6113 -8.7231 -2.0637
                    CHANNELS 3 Zrotation Xrotation Yrotation
                    JOINT LeftFinger31
                    {
                      OFFSET -0.1927 -3.8059 -0.2383
                      CHANNELS 3 Zrotation Xrotation Yrotation
                      JOINT LeftFinger32
                      {
                        OFFSET -0.1091 -2.1688 -0.1362
                        CHANNELS 3 Zrotation Xrotation Yrotation
                        End Site
                        {
                          OFFSET -0.2358 -1.9176 -0.0906
                        }
                      }
                    }
                  }
                  JOINT LeftFinger4
                  {
                    OFFSET -0.6151 -8.0947 -3.5641
                    CHANNELS 3 Zrotation Xrotation Yrotation
                    JOINT LeftFinger41
                    {
                      OFFSET -0.4882 -2.341 -0.6462
                      CHANNELS 3 Zrotation Xrotation Yrotation
                      JOINT LeftFinger42
                      {
                        OFFSET -0.3575 -1.7167 -0.4742
                        CHANNELS 3 Zrotation Xrotation Yrotation
                        End Site
                        {
                          OFFSET -0.4187 -1.5237 -0.3496
                        }
                      }
                    }
                  }
                  JOINT LeftFinger0
                  {
                    OFFSET -1.42 -1.8761 1.4223
                    CHANNELS 3 Zrotation Xrotation Yrotation
                    JOINT LeftFinger01
                    {
                      OFFSET -1.1471 -3.4929 2.6334
                      CHANNELS 3 Zrotation Xrotation Yrotation
                      JOINT LeftFinger02
                      {
                        OFFSET -0.823 -2.3 1.6571
                        CHANNELS 3 Zrotation Xrotation Yrotation
                        End Site
                        {
                          OFFSET -0.5822 -1.6914 1.1582
                        }
                      }
                    }
                  }
                }
              }
            }
          }
          JOINT RightCollar
          {
            OFFSET -2.2603 21.606 7.4023
            CHANNELS 3 Zrotation Xrotation Yrotation
            JOINT RightShoulder
            {
              OFFSET -13.5187 -1.1334 -5.0155
              CHANNELS 3 Zrotation Xrotation Yrotation
              JOINT RightElbow
              {
                OFFSET 0.0994 -28.0499 -0.2431
                CHANNELS 3 Zrotation Xrotation Yrotation
                JOINT RightWrist
                {
                  OFFSET -0.0679 -23.3996 -0.1402
                  CHANNELS 3 Zrotation Xrotation Yrotation
                  JOINT RightFinger1
                  {
                    OFFSET -0.7932 -9.0691 2.5189
                    CHANNELS 3 Zrotation Xrotation Yrotation
                    JOINT RightFinger11
                    {
                      OFFSET 0.8272 -3.3923 0.5977
                      CHANNELS 3 Zrotation Xrotation Yrotation
                      JOINT RightFinger12
                      {
                        OFFSET 0.565 -2.3158 0.4082
                        CHANNELS 3 Zrotation Xrotation Yrotation
                        End Site
                        {
                          OFFSET 0.4919 -1.6479 0.2673
                        }
                      }
                    }
                  }
                  JOINT RightFinger2
                  {
                    OFFSET -0.916 -9.2044 0.2193
                    CHANNELS 3 Zrotation Xrotation Yrotation
                    JOINT RightFinger21
                    {
                      OFFSET -0.0117 -4.1944 -0.0248
                      CHANNELS 3 Zrotation Xrotation Yrotation
                      JOINT RightFinger22
                      {
                        OFFSET -0.0071 -2.3249 -0.0142
                        CHANNELS 3 Zrotation Xrotation Yrotation
                        End Site
                        {
                          OFFSET 0.1475 -2.0882 0.0028
                        }
                      }
                    }
                  }
                  JOINT RightFinger3
                  {
                    OFFSET -0.6113 -8.7231 -2.0637
                    CHANNELS 3 Zrotation Xrotation Yrotation
                    JOINT RightFinger31
                    {
                      OFFSET 0.1927 -3.8059 -0.2383
                      CHANNELS 3 Zrotation Xrotation Yrotation
                      JOINT RightFinger32
                      {
                        OFFSET 0.1091 -2.1688 -0.1362
                        CHANNELS 3 Zrotation Xrotation Yrotation
                        End Site
                        {
                          OFFSET 0.2358 -1.9176 -0.0906
                        }
                      }
                    }
                  }
                  JOINT RightFinger4
                  {
                    OFFSET 0.6151 -8.0947 -3.564
                    CHANNELS 3 Zrotation Xrotation Yrotation
                    JOINT RightFinger41
                    {
                      OFFSET 0.4882 -2.341 -0.6462
                      CHANNELS 3 Zrotation Xrotation Yrotation
                      JOINT RightFinger42
                      {
                        OFFSET 0.3574 -1.7166 -0.4742
                        CHANNELS 3 Zrotation Xrotation Yrotation
                        End Site
                        {
                          OFFSET 0.4187 -1.5237 -0.3496
                        }
                      }
                    }
                  }
                  JOINT RightFinger0
                  {
                    OFFSET 1.4199 -1.8761 1.4221
                    CHANNELS 3 Zrotation Xrotation Yrotation
                    JOINT RightFinger01
                    {
                      OFFSET 1.1472 -3.4929 2.6336
                      CHANNELS 3 Zrotation Xrotation Yrotation
                      JOINT RightFinger02
                      {
                        OFFSET 0.8229 -2.3 1.6571
                        CHANNELS 3 Zrotation Xrotation Yrotation
                        End Site
                        {
                          OFFSET 0.5822 -1.6914 1.1582
                        }
                      }
                    }
                  }
                }
              }
            }
          }
        }
      }
    }
    JOINT RightHip
    {
      OFFSET -9.412 3.9771 -0.7758
      CHANNELS 3 Zrotation Xrotation Yrotation
      JOINT RightKnee
      {
        OFFSET -0.7531 -40.938 0
        CHANNELS 3 Zrotation Xrotation Yrotation
        JOINT RightAnkle
        {
          OFFSET 0 -40.1986 0
          CHANNELS 3 Zrotation Xrotation Yrotation
          JOINT RightToe
          {
            OFFSET 0 -4.4182 9.239
            CHANNELS 3 Zrotation Xrotation Yrotation
            End Site
            {
              OFFSET 0 0 6.1981
            }
          }
        }
      }
    }
    JOINT LeftHip
    {
      OFFSET 9.4119 3.9773 -0.7758
      CHANNELS 3 Zrotation Xrotation Yrotation
      JOINT LeftKnee
      {
        OFFSET 0.7532 -40.9383 0
        CHANNELS 3 Zrotation Xrotation Yrotation
        JOINT LeftAnkle
        {
          OFFSET 0 -40.1986 0
          CHANNELS 3 Zrotation Xrotation Yrotation
          JOINT LeftToe
          {
            OFFSET 0 -4.4182 9.239
            CHANNELS 3 Zrotation Xrotation Yrotation
            End Site
            {
              OFFSET 0 0 6.1981
            }
          }
        }
      }
    }
  }
}
MOTION
Frames:	8
Frame Time:	0.0333333
-1.00797 -1.92845 16.0756 0 0 -0 -7.28012 13.5983 -6.71089 3.26668 4.49887 -2.40364 6.75075 8.84863 -5.08424 6.75077 8.84864 -5.08425 -4.68281 -9.43222 -29.4076 1.70877 -3.71761 -23.6909 19.3919 -0.0687225 -13.1147 -7.45425 8.7467 11.3527 -12.3275 -15.2162 -14.6385 -8.55467 19.0361 -7.16306 -0.343098 8.01298 -4.70229 -0.230184 -2.90113 -1.21464 0.934299 -0.580505 0.0548091 2.36508 -0.772919 -2.84327 -0.18942 -1.00147 0.221069 3.02781 -1.88238 0.348492 3.58699 -2.82996 1.11692 -0.211907 -1.22128 0.443575 3.20478 -2.18324 0.487224 2.70488 -3.54179 2.00085 -0.0697798 -1.97084 1.6865 3.00686 -2.01066 0.549799 7.12665 12.7395 -3.76208 -2.76413 -0.17647 0.333167 -0.0109318 -0.0143783 0.00294525 -14.4443 0.216762 3.55647 1.43831 10.8907 -14.5207 8.8202 -10.3929 23.7739 6.73292 -6.44132 25.0627 7.75206 9.55548 4.09836 -0.0375933 -0.338783 0.391973 4.21932 1.4388 -0.120791 3.02179 1.62148 3.11872 2.722 0.927215 0.042879 1.939 0.66028 0.0350057 1.05385 0.0676251 -0.49715 2.39911 0.927118 0.115927 1.61059 0.621519 0.0822992 1.71357 -0.878142 -1.30681 0.145463 0.054137 0.0122775 1.85529 0.69268 0.143007 -5.32901 16.1752 6.14762 0.772669 -0.692696 -0.801221 -1.16586 2.63366 0.854938 16.0881 -15.165 7.17155 0.476096 1.95058 0.133559 -3.89212 0.499432 -8.31852 0.14633 1.00225 -0.0590125 4.64079 -0.700434 -11.1166 0.162847 6.40223 0.503063 6.45378 -17.1757 -4.12979 0.0747408 -0.574506 0.000513548 
-1.01778 -1.92905 16.0824 0 0 -0 -7.29599 13.612 -6.69727 3.28001 4.51709 -2.41261 6.77922 8.88386 -5.1045 6.77925 8.88387 -5.10452 -4.56876 -9.53456 -29.5406 1.74054 -3.72071 -23.8182 19.3897 -0.0689005 -13.1168 -7.45037 8.76588 11.3593 -12.3322 -15.2197 -14.6544 -8.56177 19.0643 -7.01181 -0.34575 8.01493 -4.70206 -0.230143 -2.90004 -1.21408 0.931684 -0.578886 0.0546458 2.35925 -0.768866 -2.84394 -0.188944 -0.998771 0.220529 3.02175 -1.87883 0.347972 3.58112 -2.82609 1.11564 -0.211433 -1.21841 0.442637 3.19975 -2.18015 0.487176 2.69802 -3.53749 1.99924 -0.0697351 -1.96812 1.68438 3.00115 -2.0069 0.548664 7.12678 12.7394 -3.76211 -2.76419 -0.176455 0.333208 -0.0109127 -0.0143679 0.00294563 -14.4448 0.217127 3.55009 1.43908 10.8872 -14.5199 8.81032 -10.3958 23.7696 6.72296 -6.43761 25.0566 7.7519 9.55542 4.0984 -0.0376057 -0.33882 0.392002 4.21946 1.43886 -0.120869 3.02813 1.62404 3.11871 2.72871 0.929488 0.0429123 1.94595 0.662653 0.0351094 1.06015 0.0700047 -0.496568 2.40513 0.929441 0.11616 1.61677 0.623905 0.0825774 1.72009 -0.875906 -1.30611 0.152278 0.0566664 0.0128494 1.85689 0.693468 0.14348 -5.32918 16.1751 6.14763 0.772709 -0.692681 -0.801326 -1.16585 2.63365 0.854946 16.1084 -15.1654 7.17674 0.472619 1.94293 0.128298 -3.89657 0.488521 -8.31752 0.149067 1.02162 -0.0601594 4.66862 -0.699275 -11.0909 0.16204 6.36184 0.497864 6.43759 -17.1555 -4.15823 0.0744101 -0.57192 0.000521693 
-1.02701 -1.92975 16.0858 0 0 -0 -7.30391 13.6206 -6.68604 3.28795 4.52289 -2.41546 6.79572 8.89498 -5.11129 6.79574 8.895 -5.1113 -4.45672 -9.61143 -29.6841 1.7887 -3.7155 -23.9607 19.3865 -0.0690168 -13.1195 -7.44616 8.78188 11.3656 -12.3358 -15.2221 -14.6672 -8.56986 19.0844 -6.88765 -0.34838 8.01689 -4.70184 -0.230033 -2.89893 -1.21356 0.929089 -0.577278 0.0544821 2.3534 -0.764791 -2.84459 -0.188507 -0.996123 0.219993 3.01569 -1.87528 0.347462 3.57527 -2.82223 1.11438 -0.211005 -1.21555 0.441692 3.19473 -2.17702 0.487084 2.69113 -3.53318 1.99766 -0.0696283 -1.96545 1.68227 2.99548 -2.00314 0.54754 7.12691 12.7392 -3.76215 -2.76413 -0.176521 0.333113 -0.0109148 -0.0143647 0.00295345 -14.4452 0.217547 3.5437 1.43916 10.8861 -14.5198 8.80046 -10.3986 23.7653 6.71292 -6.43488 25.053 7.75179 9.5554 4.0984 -0.0375975 -0.338875 0.392067 4.21947 1.43885 -0.120794 3.03449 1.62659 3.11867 2.73543 0.93179 0.0429745 1.95288 0.665028 0.0351888 1.0665 0.0724099 -0.495997 2.41115 0.931786 0.116414 1.62288 0.626258 0.082859 1.72666 -0.873642 -1.30542 0.159025 0.0591889 0.0134175 1.8585 0.694257 0.143965 -5.32933 16.175 6.14762 0.772729 -0.69268 -0.801318 -1.16587 2.63365 0.854956 16.1203 -15.172 7.1811 0.47233 1.94982 0.124431 -3.90311 0.475092 -8.31851 0.151808 1.04101 -0.0612783 4.67874 -0.737225 -11.0653 0.161238 6.42666 0.495472 6.42618 -17.1943 -4.18343 0.0740748 -0.569334 0.000528435 
-1.03605 -1.9306 16.0859 0 0 -0 -7.30564 13.6276 -6.67595 3.29219 4.52237 -2.41523 6.80417 8.89372 -5.11111 6.8042 8.89375 -5.11113 -4.34859 -9.67853 -29.8287 1.85713 -3.71406 -24.1084 19.3825 -0.0691986 -13.1228 -7.44114 8.79329 11.3713 -12.3382 -15.2235 -14.6758 -8.57654 19.0965 -6.80364 -0.351057 8.01882 -4.70161 -0.229925 -2.89782 -1.21298 0.926463 -0.575637 0.0543033 2.34756 -0.760721 -2.84528 -0.187977 -0.993424 0.219483 3.00961 -1.87171 0.346935 3.5694 -2.81833 1.1131 -0.21062 -1.21268 0.440743 3.18967 -2.17392 0.487029 2.68424 -3.52887 1.996 -0.0696386 -1.96275 1.6802 2.98974 -1.99936 0.546409 7.12703 12.739 -3.76219 -2.76412 -0.176503 0.333107 -0.0109222 -0.014367 0.00294994 -14.4457 0.217993 3.53729 1.43934 10.885 -14.5196 8.79263 -10.3993 23.763 6.70312 -6.43532 25.0516 7.75166 9.55533 4.09843 -0.0376681 -0.338924 0.392097 4.21959 1.43891 -0.120878 3.04082 1.62914 3.11866 2.74215 0.934079 0.0430268 1.95984 0.667382 0.0352687 1.07283 0.0747992 -0.49542 2.41718 0.934118 0.116648 1.62903 0.628652 0.0831384 1.73319 -0.871401 -1.30473 0.165796 0.0617112 0.0139758 1.86013 0.695042 0.14445 -5.32951 16.1748 6.14761 0.772722 -0.692674 -0.801327 -1.16587 2.63367 0.854997 16.1263 -15.1771 7.1846 0.47201 1.94714 0.120745 -3.90968 0.467129 -8.31922 0.154558 1.06039 -0.062421 4.68903 -0.736719 -11.0388 0.160748 6.4258 0.492237 6.41446 -17.2072 -4.21097 0.0737482 -0.566749 0.000528155 
-1.04548 -1.93189 16.0848 0 0 -0 -7.30322 13.6368 -6.66533 3.29479 4.5213 -2.41483 6.80934 8.89145 -5.11041 6.80937 8.89148 -5.11043 -4.24702 -9.75145 -29.9655 1.94911 -3.72889 -24.251 19.3775 -0.0695989 -13.1271 -7.43499 8.79885 11.3765 -12.339 -15.224 -14.6789 -8.57934 19.1005 -6.77271 -0.353676 8.02077 -4.70139 -0.229733 -2.89673 -1.21243 0.923829 -0.574017 0.0541474 2.34173 -0.756676 -2.84594 -0.18758 -0.990734 0.218942 3.00355 -1.86817 0.346416 3.56356 -2.81443 1.1118 -0.210064 -1.20986 0.439804 3.18465 -2.17082 0.48696 2.67738 -3.52455 1.99441 -0.0696079 -1.96004 1.67807 2.98405 -1.99558 0.545257 7.12719 12.7388 -3.76228 -2.76413 -0.176472 0.333095 -0.0109071 -0.0143572 0.00294685 -14.4461 0.218431 3.53091 1.4395 10.884 -14.5194 8.78709 -10.3979 23.7619 6.69353 -6.44123 25.0515 7.75155 9.5553 4.09846 -0.0376502 -0.338958 0.392152 4.21961 1.4389 -0.120804 3.04715 1.6317 3.11862 2.74885 0.936368 0.0430662 1.96679 0.669738 0.0353574 1.07918 0.0772085 -0.494852 2.42485 0.937085 0.116978 1.63515 0.631011 0.0834091 1.73974 -0.869153 -1.30401 0.172579 0.064243 0.0145456 1.86173 0.69583 0.144917 -5.32965 16.1747 6.14762 0.772723 -0.692678 -0.801325 -1.16587 2.63364 0.855048 16.1289 -15.1907 7.18829 0.473706 1.95743 0.118988 -3.91771 0.455798 -8.32307 0.157294 1.07978 -0.0635615 4.69462 -0.765261 -11.0124 0.15995 6.44823 0.488515 6.39883 -17.2168 -4.24323 0.073398 -0.564157 0.000528031 
-1.05495 -1.9335 16.08 0 0 -0 -7.29653 13.6483 -6.65606 3.29595 4.51988 -2.41398 6.8115 8.88862 -5.10869 6.81153 8.88866 -5.10871 -4.15207 -9.82976 -30.0936 2.06044 -3.75818 -24.3885 19.3724 -0.0699313 -13.1313 -7.42969 8.80028 11.3804 -12.3365 -15.2186 -14.6774 -8.5776 19.0999 -6.79002 -0.356309 8.0227 -4.70117 -0.229627 -2.89559 -1.2119 0.921208 -0.572394 0.0539828 2.33591 -0.75258 -2.84662 -0.187119 -0.988066 0.21843 2.99748 -1.86462 0.345915 3.55768 -2.81055 1.11051 -0.209692 -1.20699 0.438817 3.17958 -2.16772 0.486894 2.67051 -3.52023 1.9928 -0.0695914 -1.95736 1.67598 2.97834 -1.99181 0.544121 7.12731 12.7386 -3.76231 -2.76412 -0.176469 0.333093 -0.010916 -0.0143766 0.0029396 -14.4465 0.218866 3.5245 1.43729 10.884 -14.5197 8.78508 -10.394 23.7625 6.68774 -6.45135 25.0551 7.75142 9.55523 4.09848 -0.037599 -0.338994 0.392217 4.21974 1.43896 -0.120869 3.05348 1.63423 3.11859 2.75558 0.938666 0.0431233 1.97372 0.672117 0.0354297 1.08554 0.0796017 -0.494285 2.43253 0.940047 0.117269 1.64128 0.633375 0.0836767 1.7463 -0.866914 -1.30332 0.179337 0.0667741 0.0151084 1.86334 0.69663 0.145396 -5.32977 16.1745 6.14763 0.772736 -0.692686 -0.801313 -1.16588 2.63369 0.854939 16.1281 -15.2065 7.19722 0.475474 1.95846 0.117483 -3.92637 0.452059 -8.33247 0.15918 1.09324 -0.0643736 4.69894 -0.786039 -10.9809 0.156346 6.46303 0.485847 6.38448 -17.2303 -4.28308 0.0730812 -0.561593 0.00053298 
-1.06447 -1.93568 16.074 0 0 -0 -7.28579 13.6625 -6.6485 3.29586 4.51801 -2.41271 6.81113 8.88495 -5.10601 6.81115 8.88498 -5.10603 -4.0638 -9.91211 -30.2132 2.18725 -3.80001 -24.5206 19.3662 -0.0702901 -13.135 -7.42652 8.80058 11.3831 -12.3305 -15.2051 -14.6731 -8.57354 19.0978 -6.83372 -0.358979 8.02464 -4.70096 -0.229595 -2.89447 -1.21135 0.918589 -0.570764 0.0537971 2.33007 -0.748528 -2.8473 -0.18672 -0.985388 0.217908 2.9914 -1.86109 0.345401 3.5518 -2.80669 1.10922 -0.209221 -1.20416 0.437896 3.17454 -2.16463 0.486835 2.66363 -3.51594 1.99119 -0.0694112 -1.95469 1.67386 2.97265 -1.98804 0.542982 7.12742 12.7384 -3.76236 -2.76415 -0.176468 0.333088 -0.0109076 -0.0144009 0.00295572 -14.4474 0.218517 3.51986 1.43135 10.884 -14.5203 8.78637 -10.3877 23.7652 6.68701 -6.46452 25.0613 7.7513 9.55517 4.0985 -0.037619 -0.33903 0.39226 4.21976 1.43894 -0.120804 3.05984 1.63677 3.11858 2.76228 0.940947 0.0431583 1.98065 0.674469 0.0355203 1.09185 0.0819893 -0.49372 2.44018 0.943009 0.117592 1.64874 0.636274 0.0840261 1.75284 -0.86467 -1.30265 0.186099 0.069294 0.0156748 1.86492 0.697405 0.14586 -5.32992 16.1744 6.14762 0.772712 -0.692701 -0.801326 -1.16587 2.63367 0.854932 16.1251 -15.2313 7.21621 0.479276 1.97273 0.117435 -3.93597 0.443983 -8.3503 0.161073 1.10674 -0.06517 4.70346 -0.816475 -10.9437 0.148299 6.46887 0.483706 6.3678 -17.2297 -4.33341 0.0727488 -0.559022 0.000519877 
-1.07414 -1.93817 16.0662 0 0 -0 -7.27155 13.6799 -6.64032 3.29468 4.51536 -2.41134 6.8085 8.87979 -5.10297 6.80853 8.87981 -5.10298 -3.98286 -9.99583 -30.3238 2.32639 -3.85148 -24.6448 19.359 -0.0707059 -13.1396 -7.42398 8.79997 11.3853 -12.3229 -15.1871 -14.6665 -8.56877 19.0944 -6.89181 -0.361624 8.02659 -4.70075 -0.229463 -2.89336 -1.21078 0.915985 -0.569128 0.0536378 2.32425 -0.744465 -2.84796 -0.186229 -0.982718 0.217397 2.98533 -1.85753 0.344895 3.54596 -2.8028 1.10794 -0.208807 -1.20128 0.436929 3.16951 -2.16149 0.486749 2.65677 -3.51162 1.98957 -0.0693823 -1.952 1.67178 2.96694 -1.98425 0.541832 7.12759 12.7382 -3.76241 -2.76414 -0.176499 0.333111 -0.0109045 -0.0143623 0.00294115 -14.4483 0.218158 3.51524 1.4229 10.8844 -14.5213 8.78917 -10.38 23.7697 6.68795 -6.48288 25.0634 7.75117 9.55512 4.09853 -0.0376444 -0.339064 0.392294 4.21987 1.43899 -0.120871 3.06717 1.63973 3.11855 2.7703 0.943672 0.0432115 1.98759 0.676849 0.035617 1.09922 0.0847692 -0.493051 2.44785 0.94598 0.117895 1.6562 0.639155 0.0843682 1.75936 -0.862427 -1.30195 0.192942 0.0718198 0.0162551 1.86653 0.698198 0.146332 -5.33009 16.1743 6.14762 0.772719 -0.69267 -0.8013 -1.16586 2.63367 0.854933 16.1195 -15.2626 7.23974 0.483277 1.98915 0.117362 -3.94648 0.435249 -8.37518 0.162971 1.12021 -0.0659935 4.69628 -0.908582 -10.9065 0.1379 6.58553 0.483389 6.35207 -17.2812 -4.37922 0.0717178 -0.551223 0.000512746 
